# xmcd CD database file
#
# Track frame offsets:
#	150
#	21931
#	38761
#	56156
#	75286
#
# Disc length: 1242 seconds
#
# Revision: 0
# Processed by: cddbd v1.5.1PL2 Copyright (c) Steve Scherf et al.
# Submitted via: CDex 1.51
#
DISCID=3204d805
DTITLE=ラブひな - ラブひな ヴォーカル・コンプリート・ボックス 届け、私たちの歌 Disc5
DYEAR=2006
DGENRE=Anime
TTITLE0=笑顔の未来へ-2005-
TTITLE1=毎日がお天気-2005-
TTITLE2=Happy happy*rice shower-2005-
TTITLE3=ラムネ色の夏
TTITLE4=恋のチカラは不思議な魔法
EXTD=YEAR: 2006
EXTT0=
EXTT1=
EXTT2=
EXTT3=
EXTT4=
PLAYORDER=
